<svg xmlns="http://www.w3.org/2000/svg" xmlns:xlink="http://www.w3.org/1999/xlink" width="500" zoomAndPan="magnify" viewBox="0 0 375 374.999991" height="500" preserveAspectRatio="xMidYMid meet" version="1.0"><defs><g/><clipPath id="ac24f5ea2e"><path d="M 20.328125 1 L 353.753906 1 L 353.753906 374.867188 L 20.328125 374.867188 Z M 20.328125 1 " clip-rule="nonzero"/></clipPath></defs><g clip-path="url(#ac24f5ea2e)"><path fill="#559092" d="M 333.757812 296.160156 L 207.046875 369.652344 C 196.007812 376.058594 178.078125 376.058594 167.035156 369.652344 L 40.324219 296.160156 C 29.285156 289.753906 20.320312 274.152344 20.320312 261.347656 L 20.320312 114.355469 C 20.320312 101.550781 29.285156 85.949219 40.324219 79.542969 L 167.035156 6.050781 C 178.078125 -0.355469 196.007812 -0.355469 207.046875 6.050781 L 333.757812 79.542969 C 344.800781 85.949219 353.765625 101.550781 353.765625 114.355469 L 353.765625 261.347656 C 353.765625 274.152344 344.800781 289.753906 333.757812 296.160156 Z M 333.757812 296.160156 " fill-opacity="1" fill-rule="nonzero"/></g><g fill="#c8e3df" fill-opacity="1"><g transform="translate(43.170348, 257.199095)"><g><path d="M 75.90625 -139.09375 C 87.957031 -139.09375 98.453125 -137.101562 107.390625 -133.125 C 116.335938 -129.15625 123.195312 -123.460938 127.96875 -116.046875 C 132.738281 -108.628906 135.125 -99.816406 135.125 -89.609375 C 135.125 -79.546875 132.738281 -70.769531 127.96875 -63.28125 C 123.195312 -55.800781 116.335938 -50.070312 107.390625 -46.09375 C 98.453125 -42.125 87.957031 -40.140625 75.90625 -40.140625 L 44.515625 -40.140625 L 44.515625 0 L 18.671875 0 L 18.671875 -139.09375 Z M 74.71875 -62 C 85.976562 -62 94.519531 -64.378906 100.34375 -69.140625 C 106.175781 -73.910156 109.09375 -80.734375 109.09375 -89.609375 C 109.09375 -98.484375 106.175781 -105.304688 100.34375 -110.078125 C 94.519531 -114.847656 85.976562 -117.234375 74.71875 -117.234375 L 44.515625 -117.234375 L 44.515625 -62 Z M 74.71875 -62 "/></g></g></g><g fill="#c8e3df" fill-opacity="1"><g transform="translate(187.410413, 257.199095)"><g><path d="M 83.0625 1.984375 C 69.019531 1.984375 56.332031 -1.09375 45 -7.25 C 33.675781 -13.414062 24.800781 -21.925781 18.375 -32.78125 C 11.957031 -43.644531 8.75 -55.898438 8.75 -69.546875 C 8.75 -83.191406 11.992188 -95.441406 18.484375 -106.296875 C 24.972656 -117.160156 33.878906 -125.671875 45.203125 -131.828125 C 56.523438 -137.992188 69.207031 -141.078125 83.25 -141.078125 C 94.644531 -141.078125 105.046875 -139.085938 114.453125 -135.109375 C 123.859375 -131.140625 131.804688 -125.378906 138.296875 -117.828125 L 121.609375 -102.140625 C 111.535156 -112.992188 99.148438 -118.421875 84.453125 -118.421875 C 74.910156 -118.421875 66.363281 -116.332031 58.8125 -112.15625 C 51.257812 -107.988281 45.363281 -102.195312 41.125 -94.78125 C 36.882812 -87.363281 34.765625 -78.953125 34.765625 -69.546875 C 34.765625 -60.140625 36.882812 -51.726562 41.125 -44.3125 C 45.363281 -36.894531 51.257812 -31.097656 58.8125 -26.921875 C 66.363281 -22.753906 74.910156 -20.671875 84.453125 -20.671875 C 99.148438 -20.671875 111.535156 -26.164062 121.609375 -37.15625 L 138.296875 -21.265625 C 131.804688 -13.710938 123.820312 -7.945312 114.34375 -3.96875 C 104.875 0 94.445312 1.984375 83.0625 1.984375 Z M 83.0625 1.984375 "/></g></g></g></svg>