<svg xmlns="http://www.w3.org/2000/svg" xmlns:xlink="http://www.w3.org/1999/xlink" width="278" zoomAndPan="magnify" viewBox="0 0 208.5 225.749993" height="301" preserveAspectRatio="xMidYMid meet" version="1.0"><defs><g/><clipPath id="675ab9f926"><path d="M 37.515625 38.246094 L 170.265625 38.246094 L 170.265625 188 L 37.515625 188 Z M 37.515625 38.246094 " clip-rule="nonzero"/></clipPath></defs><g clip-path="url(#675ab9f926)"><path fill="#559092" d="M 162.304688 156.367188 L 137.078125 170.996094 L 111.855469 185.628906 C 107.457031 188.179688 100.320312 188.179688 95.925781 185.628906 L 70.699219 170.996094 L 45.476562 156.367188 C 41.078125 153.816406 37.511719 147.605469 37.511719 142.507812 L 37.511719 83.984375 C 37.511719 78.886719 41.078125 72.675781 45.476562 70.125 L 70.699219 55.496094 L 95.925781 40.863281 C 100.320312 38.3125 107.457031 38.3125 111.855469 40.863281 L 137.078125 55.496094 L 162.304688 70.125 C 166.699219 72.675781 170.269531 78.886719 170.269531 83.984375 L 170.269531 142.507812 C 170.269531 147.605469 166.699219 153.816406 162.304688 156.367188 Z M 162.304688 156.367188 " fill-opacity="1" fill-rule="nonzero"/></g><g fill="#c8e3df" fill-opacity="1"><g transform="translate(46.603048, 141.337434)"><g><path d="M 30.21875 -55.359375 C 35.007812 -55.359375 39.1875 -54.566406 42.75 -52.984375 C 46.3125 -51.410156 49.039062 -49.144531 50.9375 -46.1875 C 52.832031 -43.238281 53.78125 -39.734375 53.78125 -35.671875 C 53.78125 -31.660156 52.832031 -28.164062 50.9375 -25.1875 C 49.039062 -22.207031 46.3125 -19.925781 42.75 -18.34375 C 39.1875 -16.769531 35.007812 -15.984375 30.21875 -15.984375 L 17.71875 -15.984375 L 17.71875 0 L 7.4375 0 L 7.4375 -55.359375 Z M 29.734375 -24.671875 C 34.222656 -24.671875 37.625 -25.617188 39.9375 -27.515625 C 42.257812 -29.421875 43.421875 -32.140625 43.421875 -35.671875 C 43.421875 -39.203125 42.257812 -41.914062 39.9375 -43.8125 C 37.625 -45.71875 34.222656 -46.671875 29.734375 -46.671875 L 17.71875 -46.671875 L 17.71875 -24.671875 Z M 29.734375 -24.671875 "/></g></g></g><g fill="#c8e3df" fill-opacity="1"><g transform="translate(104.030477, 141.337434)"><g><path d="M 33.0625 0.796875 C 27.46875 0.796875 22.414062 -0.425781 17.90625 -2.875 C 13.40625 -5.332031 9.875 -8.722656 7.3125 -13.046875 C 4.757812 -17.367188 3.484375 -22.25 3.484375 -27.6875 C 3.484375 -33.113281 4.773438 -37.988281 7.359375 -42.3125 C 9.941406 -46.632812 13.484375 -50.019531 17.984375 -52.46875 C 22.492188 -54.925781 27.546875 -56.15625 33.140625 -56.15625 C 37.671875 -56.15625 41.804688 -55.363281 45.546875 -53.78125 C 49.296875 -52.195312 52.460938 -49.90625 55.046875 -46.90625 L 48.40625 -40.65625 C 44.394531 -44.976562 39.460938 -47.140625 33.609375 -47.140625 C 29.816406 -47.140625 26.414062 -46.304688 23.40625 -44.640625 C 20.40625 -42.984375 18.0625 -40.675781 16.375 -37.71875 C 14.6875 -34.769531 13.84375 -31.425781 13.84375 -27.6875 C 13.84375 -23.9375 14.6875 -20.582031 16.375 -17.625 C 18.0625 -14.675781 20.40625 -12.367188 23.40625 -10.703125 C 26.414062 -9.046875 29.816406 -8.21875 33.609375 -8.21875 C 39.460938 -8.21875 44.394531 -10.410156 48.40625 -14.796875 L 55.046875 -8.46875 C 52.460938 -5.457031 49.285156 -3.160156 45.515625 -1.578125 C 41.742188 0.00390625 37.59375 0.796875 33.0625 0.796875 Z M 33.0625 0.796875 "/></g></g></g></svg>