<svg xmlns="http://www.w3.org/2000/svg" xmlns:xlink="http://www.w3.org/1999/xlink" width="456" zoomAndPan="magnify" viewBox="0 0 342 213.75" height="285" preserveAspectRatio="xMidYMid meet" version="1.0"><defs><g/><clipPath id="a93bb62af8"><path d="M 38.039062 64 L 137.675781 64 L 137.675781 176 L 38.039062 176 Z M 38.039062 64 " clip-rule="nonzero"/></clipPath></defs><g clip-path="url(#a93bb62af8)"><path fill="#559092" d="M 131.699219 152.273438 L 112.765625 163.234375 L 93.835938 174.191406 C 90.535156 176.101562 85.179688 176.101562 81.878906 174.191406 L 62.949219 163.234375 L 44.015625 152.273438 C 40.714844 150.363281 38.039062 145.710938 38.039062 141.890625 L 38.039062 98.050781 C 38.039062 94.230469 40.714844 89.578125 44.015625 87.667969 L 62.949219 76.707031 L 81.878906 65.75 C 85.179688 63.839844 90.535156 63.839844 93.835938 65.75 L 112.765625 76.707031 L 131.699219 87.667969 C 135 89.578125 137.675781 94.230469 137.675781 98.050781 L 137.675781 141.890625 C 137.675781 145.710938 135 150.363281 131.699219 152.273438 Z M 131.699219 152.273438 " fill-opacity="1" fill-rule="nonzero"/></g><g fill="#559092" fill-opacity="1"><g transform="translate(148.855397, 138.901771)"><g><path d="M 40.875 -74.109375 C 47.4375 -74.109375 53.132812 -73.015625 57.96875 -70.828125 C 62.800781 -68.640625 66.519531 -65.535156 69.125 -61.515625 C 71.738281 -57.492188 73.046875 -52.726562 73.046875 -47.21875 C 73.046875 -41.78125 71.738281 -37.03125 69.125 -32.96875 C 66.519531 -28.914062 62.800781 -25.8125 57.96875 -23.65625 C 53.132812 -21.507812 47.4375 -20.4375 40.875 -20.4375 L 25.9375 -20.4375 L 25.9375 0 L 8.78125 0 L 8.78125 -74.109375 Z M 39.921875 -34.40625 C 45.066406 -34.40625 48.976562 -35.515625 51.65625 -37.734375 C 54.34375 -39.960938 55.6875 -43.125 55.6875 -47.21875 C 55.6875 -51.382812 54.34375 -54.578125 51.65625 -56.796875 C 48.976562 -59.023438 45.066406 -60.140625 39.921875 -60.140625 L 25.9375 -60.140625 L 25.9375 -34.40625 Z M 39.921875 -34.40625 "/></g></g></g><g fill="#559092" fill-opacity="1"><g transform="translate(226.353875, 138.901771)"><g><path d="M 44.25 1.265625 C 36.695312 1.265625 29.867188 -0.375 23.765625 -3.65625 C 17.660156 -6.9375 12.859375 -11.488281 9.359375 -17.3125 C 5.867188 -23.132812 4.125 -29.71875 4.125 -37.0625 C 4.125 -44.394531 5.867188 -50.972656 9.359375 -56.796875 C 12.859375 -62.617188 17.660156 -67.171875 23.765625 -70.453125 C 29.867188 -73.742188 36.734375 -75.390625 44.359375 -75.390625 C 50.785156 -75.390625 56.59375 -74.257812 61.78125 -72 C 66.96875 -69.738281 71.328125 -66.488281 74.859375 -62.25 L 63.84375 -52.09375 C 58.832031 -57.875 52.617188 -60.765625 45.203125 -60.765625 C 40.617188 -60.765625 36.523438 -59.757812 32.921875 -57.75 C 29.328125 -55.738281 26.523438 -52.929688 24.515625 -49.328125 C 22.503906 -45.734375 21.5 -41.644531 21.5 -37.0625 C 21.5 -32.46875 22.503906 -28.367188 24.515625 -24.765625 C 26.523438 -21.171875 29.328125 -18.367188 32.921875 -16.359375 C 36.523438 -14.347656 40.617188 -13.34375 45.203125 -13.34375 C 52.617188 -13.34375 58.832031 -16.269531 63.84375 -22.125 L 74.859375 -11.96875 C 71.328125 -7.65625 66.945312 -4.367188 61.71875 -2.109375 C 56.5 0.140625 50.675781 1.265625 44.25 1.265625 Z M 44.25 1.265625 "/></g></g></g><g fill="#559092" fill-opacity="1"><g transform="translate(158.476956, 170.714482)"><g><path d="M 7.171875 -13.28125 C 8.890625 -13.28125 10.238281 -12.867188 11.21875 -12.046875 C 12.207031 -11.222656 12.703125 -10.09375 12.703125 -8.65625 C 12.703125 -7.207031 12.207031 -6.070312 11.21875 -5.25 C 10.238281 -4.425781 8.890625 -4.015625 7.171875 -4.015625 L 3.890625 -4.015625 L 3.890625 0 L 1.984375 0 L 1.984375 -13.28125 Z M 7.109375 -5.671875 C 8.316406 -5.671875 9.234375 -5.925781 9.859375 -6.4375 C 10.492188 -6.945312 10.8125 -7.6875 10.8125 -8.65625 C 10.8125 -9.613281 10.492188 -10.347656 9.859375 -10.859375 C 9.234375 -11.367188 8.316406 -11.625 7.109375 -11.625 L 3.890625 -11.625 L 3.890625 -5.671875 Z M 7.109375 -5.671875 "/></g></g></g><g fill="#559092" fill-opacity="1"><g transform="translate(172.176127, 170.714482)"><g><path d="M 5.390625 -10.140625 C 6.773438 -10.140625 7.835938 -9.796875 8.578125 -9.109375 C 9.316406 -8.429688 9.6875 -7.414062 9.6875 -6.0625 L 9.6875 0 L 7.96875 0 L 7.96875 -1.328125 C 7.664062 -0.859375 7.234375 -0.5 6.671875 -0.25 C 6.109375 -0.0078125 5.441406 0.109375 4.671875 0.109375 C 3.546875 0.109375 2.644531 -0.160156 1.96875 -0.703125 C 1.289062 -1.242188 0.953125 -1.957031 0.953125 -2.84375 C 0.953125 -3.726562 1.273438 -4.4375 1.921875 -4.96875 C 2.566406 -5.507812 3.585938 -5.78125 4.984375 -5.78125 L 7.875 -5.78125 L 7.875 -6.140625 C 7.875 -6.929688 7.644531 -7.535156 7.1875 -7.953125 C 6.726562 -8.367188 6.054688 -8.578125 5.171875 -8.578125 C 4.578125 -8.578125 3.992188 -8.476562 3.421875 -8.28125 C 2.859375 -8.082031 2.378906 -7.820312 1.984375 -7.5 L 1.234375 -8.859375 C 1.753906 -9.273438 2.375 -9.59375 3.09375 -9.8125 C 3.8125 -10.03125 4.578125 -10.140625 5.390625 -10.140625 Z M 4.96875 -1.296875 C 5.664062 -1.296875 6.265625 -1.445312 6.765625 -1.75 C 7.273438 -2.0625 7.644531 -2.503906 7.875 -3.078125 L 7.875 -4.484375 L 5.0625 -4.484375 C 3.519531 -4.484375 2.75 -3.960938 2.75 -2.921875 C 2.75 -2.410156 2.941406 -2.007812 3.328125 -1.71875 C 3.722656 -1.4375 4.269531 -1.296875 4.96875 -1.296875 Z M 4.96875 -1.296875 "/></g></g></g><g fill="#559092" fill-opacity="1"><g transform="translate(183.522536, 170.714482)"><g><path d="M 11.09375 -10.046875 L 11.09375 0 L 9.375 0 L 9.375 -1.515625 C 9.007812 -0.992188 8.523438 -0.59375 7.921875 -0.3125 C 7.316406 -0.03125 6.660156 0.109375 5.953125 0.109375 C 4.617188 0.109375 3.5625 -0.257812 2.78125 -1 C 2.007812 -1.738281 1.625 -2.828125 1.625 -4.265625 L 1.625 -10.046875 L 3.453125 -10.046875 L 3.453125 -4.484375 C 3.453125 -3.503906 3.6875 -2.765625 4.15625 -2.265625 C 4.625 -1.765625 5.296875 -1.515625 6.171875 -1.515625 C 7.128906 -1.515625 7.882812 -1.804688 8.4375 -2.390625 C 9 -2.972656 9.28125 -3.796875 9.28125 -4.859375 L 9.28125 -10.046875 Z M 11.09375 -10.046875 "/></g></g></g><g fill="#559092" fill-opacity="1"><g transform="translate(196.36789, 170.714482)"><g><path d="M 1.71875 -14.078125 L 3.546875 -14.078125 L 3.546875 0 L 1.71875 0 Z M 1.71875 -14.078125 "/></g></g></g><g fill="#559092" fill-opacity="1"><g transform="translate(201.661618, 170.714482)"><g><path d="M 1.71875 -10.046875 L 3.546875 -10.046875 L 3.546875 0 L 1.71875 0 Z M 2.640625 -11.984375 C 2.285156 -11.984375 1.988281 -12.097656 1.75 -12.328125 C 1.519531 -12.554688 1.40625 -12.835938 1.40625 -13.171875 C 1.40625 -13.492188 1.519531 -13.769531 1.75 -14 C 1.988281 -14.238281 2.285156 -14.359375 2.640625 -14.359375 C 2.992188 -14.359375 3.285156 -14.25 3.515625 -14.03125 C 3.753906 -13.8125 3.875 -13.535156 3.875 -13.203125 C 3.875 -12.859375 3.753906 -12.566406 3.515625 -12.328125 C 3.285156 -12.097656 2.992188 -11.984375 2.640625 -11.984375 Z M 2.640625 -11.984375 "/></g></g></g><g fill="#559092" fill-opacity="1"><g transform="translate(206.955345, 170.714482)"><g><path d="M 7.09375 -10.140625 C 8.375 -10.140625 9.390625 -9.769531 10.140625 -9.03125 C 10.890625 -8.289062 11.265625 -7.207031 11.265625 -5.78125 L 11.265625 0 L 9.453125 0 L 9.453125 -5.578125 C 9.453125 -6.546875 9.21875 -7.273438 8.75 -7.765625 C 8.28125 -8.265625 7.609375 -8.515625 6.734375 -8.515625 C 5.742188 -8.515625 4.960938 -8.226562 4.390625 -7.65625 C 3.828125 -7.082031 3.546875 -6.253906 3.546875 -5.171875 L 3.546875 0 L 1.71875 0 L 1.71875 -10.046875 L 3.46875 -10.046875 L 3.46875 -8.53125 C 3.832031 -9.050781 4.328125 -9.445312 4.953125 -9.71875 C 5.585938 -10 6.300781 -10.140625 7.09375 -10.140625 Z M 7.09375 -10.140625 "/></g></g></g><g fill="#559092" fill-opacity="1"><g transform="translate(219.876588, 170.714482)"><g><path d="M 10.8125 -4.96875 C 10.8125 -4.832031 10.800781 -4.648438 10.78125 -4.421875 L 2.625 -4.421875 C 2.726562 -3.535156 3.113281 -2.820312 3.78125 -2.28125 C 4.445312 -1.75 5.273438 -1.484375 6.265625 -1.484375 C 7.460938 -1.484375 8.425781 -1.882812 9.15625 -2.6875 L 10.171875 -1.515625 C 9.710938 -0.984375 9.144531 -0.578125 8.46875 -0.296875 C 7.789062 -0.0234375 7.035156 0.109375 6.203125 0.109375 C 5.140625 0.109375 4.195312 -0.101562 3.375 -0.53125 C 2.550781 -0.96875 1.914062 -1.578125 1.46875 -2.359375 C 1.019531 -3.148438 0.796875 -4.039062 0.796875 -5.03125 C 0.796875 -6 1.015625 -6.875 1.453125 -7.65625 C 1.890625 -8.445312 2.488281 -9.054688 3.25 -9.484375 C 4.019531 -9.921875 4.882812 -10.140625 5.84375 -10.140625 C 6.800781 -10.140625 7.65625 -9.921875 8.40625 -9.484375 C 9.164062 -9.054688 9.753906 -8.445312 10.171875 -7.65625 C 10.597656 -6.875 10.8125 -5.976562 10.8125 -4.96875 Z M 5.84375 -8.609375 C 4.96875 -8.609375 4.234375 -8.34375 3.640625 -7.8125 C 3.054688 -7.28125 2.71875 -6.585938 2.625 -5.734375 L 9.0625 -5.734375 C 8.96875 -6.578125 8.625 -7.265625 8.03125 -7.796875 C 7.445312 -8.335938 6.71875 -8.609375 5.84375 -8.609375 Z M 5.84375 -8.609375 "/></g></g></g><g fill="#559092" fill-opacity="1"><g transform="translate(231.488635, 170.714482)"><g/></g></g><g fill="#559092" fill-opacity="1"><g transform="translate(236.592624, 170.714482)"><g><path d="M 7.921875 0.15625 C 6.597656 0.15625 5.398438 -0.132812 4.328125 -0.71875 C 3.265625 -1.3125 2.425781 -2.125 1.8125 -3.15625 C 1.207031 -4.1875 0.90625 -5.347656 0.90625 -6.640625 C 0.90625 -7.929688 1.207031 -9.09375 1.8125 -10.125 C 2.425781 -11.15625 3.269531 -11.960938 4.34375 -12.546875 C 5.414062 -13.140625 6.617188 -13.4375 7.953125 -13.4375 C 8.984375 -13.4375 9.925781 -13.257812 10.78125 -12.90625 C 11.644531 -12.5625 12.382812 -12.046875 13 -11.359375 L 11.765625 -10.171875 C 10.765625 -11.210938 9.519531 -11.734375 8.03125 -11.734375 C 7.039062 -11.734375 6.144531 -11.507812 5.34375 -11.0625 C 4.550781 -10.625 3.929688 -10.015625 3.484375 -9.234375 C 3.035156 -8.460938 2.8125 -7.597656 2.8125 -6.640625 C 2.8125 -5.679688 3.035156 -4.8125 3.484375 -4.03125 C 3.929688 -3.25 4.550781 -2.632812 5.34375 -2.1875 C 6.144531 -1.75 7.039062 -1.53125 8.03125 -1.53125 C 9.507812 -1.53125 10.753906 -2.0625 11.765625 -3.125 L 13 -1.9375 C 12.382812 -1.25 11.644531 -0.726562 10.78125 -0.375 C 9.914062 -0.0195312 8.960938 0.15625 7.921875 0.15625 Z M 7.921875 0.15625 "/></g></g></g><g fill="#559092" fill-opacity="1"><g transform="translate(250.310771, 170.714482)"><g><path d="M 10.8125 -4.96875 C 10.8125 -4.832031 10.800781 -4.648438 10.78125 -4.421875 L 2.625 -4.421875 C 2.726562 -3.535156 3.113281 -2.820312 3.78125 -2.28125 C 4.445312 -1.75 5.273438 -1.484375 6.265625 -1.484375 C 7.460938 -1.484375 8.425781 -1.882812 9.15625 -2.6875 L 10.171875 -1.515625 C 9.710938 -0.984375 9.144531 -0.578125 8.46875 -0.296875 C 7.789062 -0.0234375 7.035156 0.109375 6.203125 0.109375 C 5.140625 0.109375 4.195312 -0.101562 3.375 -0.53125 C 2.550781 -0.96875 1.914062 -1.578125 1.46875 -2.359375 C 1.019531 -3.148438 0.796875 -4.039062 0.796875 -5.03125 C 0.796875 -6 1.015625 -6.875 1.453125 -7.65625 C 1.890625 -8.445312 2.488281 -9.054688 3.25 -9.484375 C 4.019531 -9.921875 4.882812 -10.140625 5.84375 -10.140625 C 6.800781 -10.140625 7.65625 -9.921875 8.40625 -9.484375 C 9.164062 -9.054688 9.753906 -8.445312 10.171875 -7.65625 C 10.597656 -6.875 10.8125 -5.976562 10.8125 -4.96875 Z M 5.84375 -8.609375 C 4.96875 -8.609375 4.234375 -8.34375 3.640625 -7.8125 C 3.054688 -7.28125 2.71875 -6.585938 2.625 -5.734375 L 9.0625 -5.734375 C 8.96875 -6.578125 8.625 -7.265625 8.03125 -7.796875 C 7.445312 -8.335938 6.71875 -8.609375 5.84375 -8.609375 Z M 5.84375 -8.609375 "/></g></g></g><g fill="#559092" fill-opacity="1"><g transform="translate(261.922818, 170.714482)"><g><path d="M 3.46875 -8.359375 C 3.789062 -8.941406 4.257812 -9.382812 4.875 -9.6875 C 5.488281 -9.988281 6.238281 -10.140625 7.125 -10.140625 L 7.125 -8.390625 C 7.03125 -8.398438 6.894531 -8.40625 6.71875 -8.40625 C 5.726562 -8.40625 4.953125 -8.109375 4.390625 -7.515625 C 3.828125 -6.929688 3.546875 -6.09375 3.546875 -5 L 3.546875 0 L 1.71875 0 L 1.71875 -10.046875 L 3.46875 -10.046875 Z M 3.46875 -8.359375 "/></g></g></g><g fill="#559092" fill-opacity="1"><g transform="translate(269.702133, 170.714482)"><g><path d="M 10.8125 -4.96875 C 10.8125 -4.832031 10.800781 -4.648438 10.78125 -4.421875 L 2.625 -4.421875 C 2.726562 -3.535156 3.113281 -2.820312 3.78125 -2.28125 C 4.445312 -1.75 5.273438 -1.484375 6.265625 -1.484375 C 7.460938 -1.484375 8.425781 -1.882812 9.15625 -2.6875 L 10.171875 -1.515625 C 9.710938 -0.984375 9.144531 -0.578125 8.46875 -0.296875 C 7.789062 -0.0234375 7.035156 0.109375 6.203125 0.109375 C 5.140625 0.109375 4.195312 -0.101562 3.375 -0.53125 C 2.550781 -0.96875 1.914062 -1.578125 1.46875 -2.359375 C 1.019531 -3.148438 0.796875 -4.039062 0.796875 -5.03125 C 0.796875 -6 1.015625 -6.875 1.453125 -7.65625 C 1.890625 -8.445312 2.488281 -9.054688 3.25 -9.484375 C 4.019531 -9.921875 4.882812 -10.140625 5.84375 -10.140625 C 6.800781 -10.140625 7.65625 -9.921875 8.40625 -9.484375 C 9.164062 -9.054688 9.753906 -8.445312 10.171875 -7.65625 C 10.597656 -6.875 10.8125 -5.976562 10.8125 -4.96875 Z M 5.84375 -8.609375 C 4.96875 -8.609375 4.234375 -8.34375 3.640625 -7.8125 C 3.054688 -7.28125 2.71875 -6.585938 2.625 -5.734375 L 9.0625 -5.734375 C 8.96875 -6.578125 8.625 -7.265625 8.03125 -7.796875 C 7.445312 -8.335938 6.71875 -8.609375 5.84375 -8.609375 Z M 5.84375 -8.609375 "/></g></g></g><g fill="#559092" fill-opacity="1"><g transform="translate(281.314181, 170.714482)"><g><path d="M 1.71875 -14.078125 L 3.546875 -14.078125 L 3.546875 0 L 1.71875 0 Z M 1.71875 -14.078125 "/></g></g></g><g fill="#559092" fill-opacity="1"><g transform="translate(286.607908, 170.714482)"><g><path d="M 1.71875 -14.078125 L 3.546875 -14.078125 L 3.546875 0 L 1.71875 0 Z M 1.71875 -14.078125 "/></g></g></g><g fill="#559092" fill-opacity="1"><g transform="translate(291.901636, 170.714482)"><g><path d="M 6.03125 0.109375 C 5.03125 0.109375 4.128906 -0.109375 3.328125 -0.546875 C 2.535156 -0.992188 1.914062 -1.601562 1.46875 -2.375 C 1.019531 -3.15625 0.796875 -4.039062 0.796875 -5.03125 C 0.796875 -6.007812 1.019531 -6.890625 1.46875 -7.671875 C 1.914062 -8.453125 2.535156 -9.054688 3.328125 -9.484375 C 4.128906 -9.921875 5.03125 -10.140625 6.03125 -10.140625 C 7.03125 -10.140625 7.925781 -9.921875 8.71875 -9.484375 C 9.507812 -9.054688 10.128906 -8.453125 10.578125 -7.671875 C 11.023438 -6.890625 11.25 -6.007812 11.25 -5.03125 C 11.25 -4.039062 11.023438 -3.15625 10.578125 -2.375 C 10.128906 -1.601562 9.507812 -0.992188 8.71875 -0.546875 C 7.925781 -0.109375 7.03125 0.109375 6.03125 0.109375 Z M 6.03125 -1.484375 C 6.675781 -1.484375 7.253906 -1.628906 7.765625 -1.921875 C 8.273438 -2.222656 8.675781 -2.640625 8.96875 -3.171875 C 9.257812 -3.710938 9.40625 -4.332031 9.40625 -5.03125 C 9.40625 -5.71875 9.257812 -6.332031 8.96875 -6.875 C 8.675781 -7.414062 8.273438 -7.832031 7.765625 -8.125 C 7.253906 -8.414062 6.675781 -8.5625 6.03125 -8.5625 C 5.382812 -8.5625 4.804688 -8.414062 4.296875 -8.125 C 3.785156 -7.832031 3.378906 -7.414062 3.078125 -6.875 C 2.785156 -6.332031 2.640625 -5.71875 2.640625 -5.03125 C 2.640625 -4.332031 2.785156 -3.710938 3.078125 -3.171875 C 3.378906 -2.640625 3.785156 -2.222656 4.296875 -1.921875 C 4.804688 -1.628906 5.382812 -1.484375 6.03125 -1.484375 Z M 6.03125 -1.484375 "/></g></g></g><g fill="#c8e3df" fill-opacity="1"><g transform="translate(51.931145, 134.545167)"><g><path d="M 20.136719 -31.539062 C 19.636719 -31.539062 19.191406 -31.429688 18.800781 -31.097656 L 3.113281 -19.300781 C 2.558594 -18.914062 2.28125 -18.300781 2.28125 -17.632812 C 2.28125 -16.964844 2.558594 -16.242188 3.113281 -15.855469 L 18.691406 -4.226562 C 19.082031 -3.949219 19.523438 -3.839844 19.96875 -3.839844 C 21.136719 -3.839844 22.140625 -4.839844 22.140625 -6.007812 C 22.140625 -6.675781 21.804688 -7.289062 21.25 -7.675781 L 8.011719 -17.632812 L 21.417969 -27.648438 C 21.972656 -28.035156 22.304688 -28.703125 22.304688 -29.371094 C 22.304688 -30.484375 21.25 -31.539062 20.136719 -31.539062 Z M 20.136719 -31.539062 "/></g></g></g><g fill="#c8e3df" fill-opacity="1"><g transform="translate(76.40618, 134.545167)"><g><path d="M 18.246094 -36.214844 C 17.132812 -36.214844 16.132812 -35.546875 15.6875 -34.488281 L 2.503906 -3.113281 C 2.335938 -2.726562 2.28125 -2.390625 2.28125 -2.003906 C 2.28125 -0.5 3.558594 0.777344 5.0625 0.777344 C 6.175781 0.777344 7.175781 0.109375 7.621094 -0.945312 L 20.75 -32.320312 C 20.914062 -32.707031 21.027344 -33.042969 21.027344 -33.433594 C 21.027344 -34.933594 19.746094 -36.214844 18.246094 -36.214844 Z M 18.246094 -36.214844 "/></g></g></g><g fill="#c8e3df" fill-opacity="1"><g transform="translate(99.323707, 134.545167)"><g><path d="M 4.394531 -31.539062 C 3.28125 -31.539062 2.28125 -30.484375 2.28125 -29.371094 C 2.28125 -28.703125 2.613281 -28.035156 3.171875 -27.648438 L 16.519531 -17.632812 L 3.28125 -7.675781 C 2.726562 -7.289062 2.449219 -6.675781 2.449219 -6.007812 C 2.449219 -4.839844 3.394531 -3.839844 4.5625 -3.839844 C 5.007812 -3.839844 5.453125 -3.949219 5.839844 -4.226562 L 21.417969 -15.855469 C 21.972656 -16.242188 22.304688 -16.964844 22.304688 -17.632812 C 22.304688 -18.300781 21.972656 -18.914062 21.417969 -19.300781 L 5.730469 -31.097656 C 5.339844 -31.429688 4.894531 -31.539062 4.394531 -31.539062 Z M 4.394531 -31.539062 "/></g></g></g></svg>